<?xml version="1.0" encoding="UTF-8" standalone="no"?>
<!-- Created with Inkscape (http://www.inkscape.org/) -->

<svg
   xmlns:dc="http://purl.org/dc/elements/1.1/"
   xmlns:cc="http://creativecommons.org/ns#"
   xmlns:rdf="http://www.w3.org/1999/02/22-rdf-syntax-ns#"
   xmlns:svg="http://www.w3.org/2000/svg"
   xmlns="http://www.w3.org/2000/svg"
   xmlns:sodipodi="http://sodipodi.sourceforge.net/DTD/sodipodi-0.dtd"
   xmlns:inkscape="http://www.inkscape.org/namespaces/inkscape"
   version="1.1"
   id="svg13159"
   xml:space="preserve"
   width="800"
   height="800"
   viewBox="0 0 800 800"
   sodipodi:docname="lion-1-publicdomainvectors.org [Converted].svg"
   inkscape:version="0.92.4 (5da689c313, 2019-01-14)"><metadata
     id="metadata13165"><rdf:RDF><cc:Work
         rdf:about=""><dc:format>image/svg+xml</dc:format><dc:type
           rdf:resource="http://purl.org/dc/dcmitype/StillImage" /><dc:title /></cc:Work></rdf:RDF></metadata><defs
     id="defs13163"><clipPath
       clipPathUnits="userSpaceOnUse"
       id="clipPath13175"><path
         d="M 0,600 H 600 V 0 H 0 Z"
         id="path13173"
         inkscape:connector-curvature="0" /></clipPath></defs><sodipodi:namedview
     pagecolor="#ffffff"
     bordercolor="#666666"
     borderopacity="1"
     objecttolerance="10"
     gridtolerance="10"
     guidetolerance="10"
     inkscape:pageopacity="0"
     inkscape:pageshadow="2"
     inkscape:window-width="1920"
     inkscape:window-height="1018"
     id="namedview13161"
     showgrid="false"
     inkscape:zoom="0.849"
     inkscape:cx="246.25981"
     inkscape:cy="377.9661"
     inkscape:window-x="-8"
     inkscape:window-y="-8"
     inkscape:window-maximized="1"
     inkscape:current-layer="g13167" /><g
     id="g13167"
     inkscape:groupmode="layer"
     inkscape:label="lion-1-publicdomainvectors.org [Converted]"
     transform="matrix(1.3333333,0,0,-1.3333333,0,800)"><g
       id="g13169"><g
         id="g13171"
         clip-path="url(#clipPath13175)"><path
           d="m 488.208,356.637 c 0.015,0.011 0.028,0.023 0.042,0.035 -0.049,-0.002 -0.096,-0.005 -0.144,-0.005 -13.388,-0.501 -33.808,15.17 -41.149,28.326 -1.379,2.471 -2.701,4.857 -3.971,7.155 -20.378,36.806 -27.436,49.503 -69.141,49.817 -0.532,-2.721 -0.994,-5.005 -1.266,-6.319 0.436,-0.964 0.826,-1.938 1.194,-2.91 0.119,0.03 0.229,0.058 0.363,0.088 1.094,0.15 2.552,0.422 3.972,0.462 1.363,-0.041 2.936,0.065 4.544,-0.178 0.809,-0.091 1.655,-0.186 2.528,-0.284 0.847,-0.167 1.727,-0.338 2.631,-0.515 1.817,-0.297 3.631,-0.938 5.543,-1.436 1.852,-0.694 3.808,-1.256 5.674,-2.143 0.941,-0.417 1.901,-0.809 2.836,-1.257 l 2.769,-1.449 c 0.933,-0.457 1.814,-1.016 2.69,-1.568 0.874,-0.558 1.765,-1.072 2.605,-1.655 1.623,-1.254 3.315,-2.327 4.719,-3.687 0.723,-0.644 1.433,-1.279 2.128,-1.897 0.634,-0.686 1.254,-1.356 1.858,-2.009 1.256,-1.25 2.19,-2.654 3.102,-3.893 0.972,-1.192 1.541,-2.511 2.169,-3.579 0.293,-0.549 0.594,-1.045 0.82,-1.531 0.19,-0.502 0.366,-0.965 0.525,-1.382 0.626,-1.656 0.983,-2.603 0.983,-2.603 0,0 -0.461,0.899 -1.269,2.469 -0.202,0.389 -0.424,0.819 -0.664,1.29 -0.276,0.452 -0.632,0.906 -0.976,1.407 -0.735,0.977 -1.414,2.172 -2.495,3.223 -1.017,1.095 -2.051,2.327 -3.398,3.39 -0.643,0.553 -1.302,1.122 -1.977,1.704 -0.73,0.514 -1.474,1.039 -2.232,1.574 -1.459,1.129 -3.206,1.969 -4.851,2.97 -0.849,0.459 -1.753,0.847 -2.63,1.275 -0.881,0.425 -1.758,0.855 -2.688,1.182 l -2.736,1.058 c -0.92,0.318 -1.858,0.578 -2.773,0.867 -1.816,0.626 -3.69,0.93 -5.446,1.376 -1.794,0.245 -3.507,0.652 -5.145,0.721 -0.813,0.065 -1.604,0.129 -2.372,0.192 -0.755,-0.003 -1.486,-0.006 -2.186,-0.009 -1.415,0.061 -2.617,-0.201 -3.71,-0.276 -1.029,-0.155 -1.668,-0.393 -2.322,-0.486 -0.197,-0.064 -0.39,-0.135 -0.579,-0.209 0.604,-2.807 0.917,-5.604 0.961,-8.355 27.581,-3.373 62.553,-32.034 79.447,-65.32 12.129,-2.787 25.469,-1.061 32.017,4.374 M 328.558,145.479 c 2.044,-33.057 15.762,-54.469 37.427,-59.353 -14.137,16.938 -24.496,46.776 -14.402,85.705 3.562,13.732 7.224,26.442 10.457,37.654 17.927,62.197 27.172,94.315 -22.315,143.883 -1.145,-2.448 -2.479,-4.68 -4.05,-6.513 l -0.102,-0.116 c 2.72,-2.286 6.109,-5.563 9.634,-9.819 1.93,-2.285 3.874,-4.866 5.807,-7.673 1.956,-2.791 3.798,-5.879 5.609,-9.109 3.54,-6.515 6.648,-13.827 8.676,-21.447 1.057,-3.793 1.799,-7.67 2.322,-11.497 0.212,-1.923 0.484,-3.821 0.551,-5.715 0.056,-0.943 0.11,-1.88 0.165,-2.811 0.002,-0.933 0.003,-1.858 0.006,-2.777 0.018,-3.669 -0.267,-7.208 -0.696,-10.533 -0.447,-3.316 -1.014,-6.433 -1.751,-9.255 -0.615,-2.848 -1.543,-5.363 -2.207,-7.624 -0.847,-2.205 -1.533,-4.144 -2.189,-5.704 -1.382,-3.083 -2.174,-4.844 -2.174,-4.844 0,0 0.685,1.802 1.88,4.96 0.559,1.588 1.124,3.559 1.835,5.788 0.523,2.289 1.294,4.817 1.731,7.665 0.56,2.819 0.934,5.918 1.178,9.186 0.226,3.276 0.298,6.738 0.067,10.299 -0.055,0.889 -0.109,1.786 -0.163,2.688 -0.108,0.9 -0.217,1.804 -0.326,2.715 -0.169,1.824 -0.547,3.645 -0.859,5.483 -0.727,3.659 -1.658,7.336 -2.892,10.912 -2.375,7.183 -5.761,13.982 -9.493,19.97 -1.908,2.971 -3.824,5.793 -5.83,8.321 -1.987,2.541 -3.962,4.863 -5.894,6.89 -0.607,0.652 -1.204,1.264 -1.797,1.858 l -1.025,-0.77 c -0.1,-0.075 -5.636,-4.234 -11.877,-9.192 16.664,-19.917 18.952,-56.518 17.806,-84.438 -1.249,-30.427 -6.902,-63.905 -15.109,-94.787 M 128.829,359.338 c -4.459,-1.221 -8.873,-1.367 -13.058,-0.462 1.611,-2.667 4.091,-4.941 7.317,-6.656 8.126,-4.32 19.023,-4.279 27.484,0.002 17.423,32.758 53.356,61.858 81.621,66.447 0.161,2.687 0.612,5.392 1.337,8.073 -1.405,0.338 -3.274,0.643 -5.514,0.791 -5.736,0.424 -13.76,-0.287 -21.37,-2.607 -3.794,-1.169 -7.502,-2.698 -10.721,-4.602 -1.632,-0.918 -3.099,-1.977 -4.469,-3.016 -1.332,-1.084 -2.543,-2.181 -3.56,-3.294 -1.024,-1.104 -1.872,-2.203 -2.571,-3.22 -0.333,-0.519 -0.646,-1.004 -0.935,-1.456 -0.251,-0.471 -0.484,-0.907 -0.69,-1.298 -0.45,-0.777 -0.651,-1.452 -0.862,-1.885 -0.187,-0.442 -0.288,-0.678 -0.288,-0.678 0,0 0.073,0.245 0.211,0.706 0.159,0.45 0.288,1.157 0.648,1.983 0.167,0.421 0.351,0.886 0.553,1.393 0.241,0.489 0.502,1.019 0.781,1.584 0.594,1.116 1.337,2.343 2.267,3.603 0.922,1.268 2.047,2.546 3.311,3.836 1.303,1.242 2.72,2.527 4.318,3.682 3.155,2.38 6.867,4.425 10.736,6.112 7.762,3.351 16.162,5.096 22.691,5.361 3.127,0.145 5.82,-0.039 7.841,-0.383 0.634,1.395 1.334,2.775 2.125,4.127 l -0.968,2.817 c -46.927,2.344 -54.057,-10.682 -72.92,-45.178 -1.753,-3.206 -3.599,-6.58 -5.578,-10.127 -5.574,-9.992 -16.315,-21.975 -29.737,-25.655 m 51.351,133.36 c -7.179,-11.697 -15.845,-25.82 -29.503,-30.327 4.621,-1.939 11.148,-2.214 15.084,-2.065 6.346,11.418 16.342,23.558 31.285,27.626 13.12,3.57 27.414,0.125 42.498,-10.212 1.693,1.488 3.516,3.117 5.4,4.84 -0.404,0.652 -0.863,1.284 -1.393,2.103 -0.616,0.906 -1.497,1.917 -2.361,3.037 -0.998,1.012 -1.963,2.25 -3.207,3.328 -0.607,0.558 -1.229,1.134 -1.866,1.722 -0.681,0.535 -1.38,1.082 -2.086,1.639 -0.693,0.589 -1.471,1.067 -2.248,1.578 -0.786,0.49 -1.539,1.084 -2.394,1.491 -0.839,0.449 -1.685,0.899 -2.533,1.354 -0.875,0.393 -1.774,0.736 -2.668,1.112 -0.887,0.414 -1.819,0.656 -2.746,0.921 -0.932,0.234 -1.844,0.617 -2.794,0.713 -0.946,0.155 -1.885,0.308 -2.812,0.461 -0.932,0.12 -1.863,0.085 -2.781,0.137 -1.847,0.181 -3.601,-0.197 -5.304,-0.313 -1.675,-0.26 -3.223,-0.744 -4.691,-1.066 -1.404,-0.509 -2.678,-1.045 -3.825,-1.485 -1.168,-0.405 -2.034,-1.063 -2.829,-1.451 -1.553,-0.862 -2.441,-1.358 -2.441,-1.358 0,0 0.827,0.592 2.275,1.626 0.747,0.477 1.558,1.246 2.683,1.787 1.104,0.576 2.344,1.269 3.733,1.957 1.456,0.502 3.016,1.185 4.739,1.659 1.754,0.328 3.596,0.929 5.57,0.97 0.984,0.058 1.992,0.202 3.01,0.187 1.019,-0.048 2.051,-0.099 3.092,-0.15 1.056,0.005 2.07,-0.282 3.121,-0.426 1.047,-0.175 2.107,-0.331 3.116,-0.664 1.019,-0.296 2.055,-0.568 3.068,-0.893 0.986,-0.39 1.97,-0.78 2.945,-1.165 1.003,-0.352 1.889,-0.891 2.821,-1.337 0.921,-0.467 1.847,-0.907 2.68,-1.462 0.853,-0.529 1.694,-1.047 2.516,-1.556 0.783,-0.57 1.546,-1.127 2.29,-1.67 1.524,-1.056 2.765,-2.296 4.02,-3.325 1.144,-1.166 2.222,-2.154 3.127,-3.197 0.442,-0.525 0.878,-1.032 1.271,-1.497 2.181,2.088 4.354,4.24 6.416,6.39 -11.236,15.264 -24.339,23.571 -38.043,24.036 -14.185,0.476 -25.583,-7.317 -31.019,-14.141 -2.265,-2.846 -4.671,-6.765 -7.216,-10.914 m 253.821,35.184 c -8.688,1.053 -15.279,4.566 -21.699,7.985 -6.842,3.647 -13.305,7.091 -22.605,8.136 -12.237,1.367 -26.567,-3.434 -37.374,-12.549 -7.621,-6.433 -16.747,-17.616 -19.356,-35.277 5.341,1.863 9.723,2.536 12.15,2.777 13.517,20.582 35.164,30.272 58.327,25.915 4.044,-0.762 7.923,-1.917 11.582,-3.39 2.275,-0.133 11.582,-0.228 18.975,6.403 m -112.596,-177.745 -15.052,6.405 -13.658,-5.256 c -1.621,-5.16 -4.286,-9.874 -7.976,-14.074 11.074,-5.081 19.731,-12.247 24.534,-16.754 6.332,5.652 15.733,12.962 20.713,16.774 -3.211,3.535 -7.355,8.879 -8.561,12.905 m 43.472,84.595 0.257,1.222 c 0.038,0.19 3.678,17.591 4.594,25.747 -5.501,4.784 -22.03,19.816 -25.617,29.72 -6.337,-0.949 -21.292,-4.757 -33.274,-19.894 l -3.21,-4.056 -2.776,4.364 c -6.982,10.977 -19.604,19.248 -36.592,24.002 -9.922,-11.96 -26.293,-25.879 -31.99,-30.603 l 9.858,-28.681 -0.958,-1.496 c -6.711,-10.491 -7.628,-22.397 -2.455,-31.847 4.434,-8.104 12.646,-12.752 22.526,-12.752 l 3.954,0.046 0.149,-3.569 c 0.274,-6.68 2.236,-24.697 7.924,-33.707 l 25.477,9.806 v 15.485 c -4.383,3.52 -12.304,9.752 -17.718,13.245 h 14.042 l 7.354,-6.204 5.974,6.204 h 11.492 l -13.79,-12.198 v -16.624 l 21.539,-9.169 c 5.578,8.977 7.22,26.567 7.375,33.097 l 0.084,3.634 4.055,-0.046 c 9.657,0 17.507,4.027 22.106,11.338 5.482,8.719 5.543,20.612 0.161,31.812 z m 88.545,27.649 c -0.914,0.349 -1.851,0.792 -2.795,1.354 -6.87,4.078 -11.541,12.606 -13.881,25.343 -2.431,13.226 -17.008,25.239 -34.663,28.564 -9.83,1.851 -34.363,3.208 -51.305,-23.431 0.379,-1.873 2.947,-5.459 6.338,-9.475 0.086,0.128 0.156,0.23 0.25,0.367 0.551,0.768 1.437,1.792 2.343,2.888 0.954,1.049 2.045,2.086 3.265,3.231 1.301,1.032 2.619,2.254 4.217,3.259 0.79,0.516 1.555,1.109 2.416,1.587 0.857,0.481 1.733,0.971 2.625,1.47 0.88,0.509 1.863,0.871 2.803,1.316 0.946,0.446 1.917,0.857 2.941,1.171 1.012,0.33 2.008,0.721 3.045,1.001 l 3.14,0.741 c 1.036,0.28 2.129,0.321 3.18,0.489 1.057,0.145 2.108,0.289 3.167,0.268 1.049,0.02 2.09,0.04 3.119,0.059 1.021,-0.094 2.032,-0.187 3.027,-0.28 0.493,-0.047 0.984,-0.095 1.467,-0.142 0.478,-0.1 0.95,-0.2 1.417,-0.302 0.93,-0.201 1.84,-0.4 2.725,-0.593 1.739,-0.494 3.328,-1.133 4.806,-1.629 1.42,-0.663 2.695,-1.324 3.827,-1.879 1.155,-0.513 2.007,-1.251 2.784,-1.705 1.506,-0.991 2.365,-1.557 2.365,-1.557 0,0 -0.917,0.467 -2.524,1.282 -0.82,0.366 -1.721,0.992 -2.917,1.368 -1.173,0.419 -2.481,0.921 -3.917,1.408 -1.494,0.318 -3.078,0.76 -4.778,1.042 -0.859,0.09 -1.741,0.181 -2.642,0.274 -0.449,0.044 -0.901,0.09 -1.358,0.134 -0.461,-0.007 -0.926,-0.015 -1.395,-0.024 -0.932,-0.016 -1.878,-0.034 -2.837,-0.05 -0.95,-0.126 -1.91,-0.254 -2.88,-0.383 -0.968,-0.083 -1.922,-0.331 -2.874,-0.573 -0.949,-0.266 -1.925,-0.398 -2.845,-0.769 l -2.769,-0.99 c -0.909,-0.355 -1.771,-0.818 -2.646,-1.213 -0.885,-0.378 -1.713,-0.848 -2.515,-1.345 -0.8,-0.498 -1.632,-0.905 -2.366,-1.451 -0.739,-0.53 -1.467,-1.051 -2.176,-1.561 -0.712,-0.502 -1.322,-1.109 -1.96,-1.634 -1.302,-1.026 -2.31,-2.225 -3.327,-3.219 -0.91,-1.079 -1.769,-2.1 -2.405,-2.983 -0.577,-0.917 -1.088,-1.58 -1.511,-2.323 -0.699,-1.323 -1.129,-2.14 -1.262,-2.39 1.695,-1.819 3.422,-3.602 5.072,-5.244 15.897,10.511 30.793,13.963 44.29,10.217 11.329,-3.143 20.95,-11.284 28.143,-23.685 3.572,-0.015 9.269,0.385 13.776,1.997 m -25.965,-12.166 c 0,0 -0.511,0.876 -1.448,2.355 -0.554,0.683 -1.092,1.609 -1.946,2.479 -0.784,0.926 -1.779,1.865 -2.907,2.815 -1.16,0.917 -2.468,1.832 -3.957,2.607 -1.48,0.787 -3.114,1.467 -4.857,1.977 -1.74,0.528 -3.586,0.898 -5.479,1.099 -1.887,0.251 -3.834,0.24 -5.758,0.204 -7.726,-0.334 -15.275,-2.842 -19.994,-5.67 -1.193,-0.689 -2.186,-1.405 -2.991,-2.058 -0.775,-0.662 -1.398,-1.264 -1.733,-1.744 -0.094,-0.116 -0.181,-0.228 -0.263,-0.333 -0.028,-0.064 -0.037,-0.105 -0.061,-0.144 -0.021,-0.036 -0.044,-0.055 -0.076,-0.102 -0.24,-1.444 -0.497,-2.923 -0.763,-4.401 41.944,-0.656 52.87,-15.417 70.397,-46.756 l 0.78,-0.19 c 6.881,-1.707 12.329,-2.849 16.724,-1.423 -0.786,0.138 -1.558,0.346 -2.316,0.625 -9.791,3.606 -14.197,18.057 -18.455,32.033 -1.926,6.32 -3.745,12.29 -5.947,17.084 -6.486,14.135 -15.78,23.232 -26.871,26.311 -10.971,3.046 -23.352,0.241 -36.844,-8.326 1.213,-1.073 2.226,-1.9 2.922,-2.368 l 1.76,-1.183 -0.136,-2.009 c 0.356,0.173 0.69,0.353 1.063,0.514 6.015,2.697 14.454,4.397 22.872,3.818 2.098,-0.199 4.185,-0.433 6.2,-0.934 2.017,-0.452 3.959,-1.081 5.764,-1.861 1.81,-0.761 3.473,-1.691 4.949,-2.705 1.482,-1.004 2.75,-2.125 3.847,-3.216 1.063,-1.128 1.971,-2.207 2.664,-3.246 0.764,-0.984 1.208,-1.99 1.682,-2.735 0.775,-1.598 1.178,-2.517 1.178,-2.517 m -84.665,107.28 c -26.184,-3.477 -30.688,-38.703 -31.028,-74.147 4.47,4.156 9.066,7.217 13.407,9.467 1.546,17.66 9.438,33.314 22.41,44.259 7.725,6.517 16.814,11.036 26.034,13.154 -3.914,4.034 -12.777,9.658 -30.823,7.267 m -58.191,6.396 c -2.627,-0.543 -4.577,-1.164 -6.013,-1.766 14.117,-8.027 23.352,-24.275 28.398,-42.058 2.838,16.408 8.789,32.04 21.208,39.864 -9.487,5.327 -29.815,6.8 -43.593,3.96 M 232.34,551.399 c 11.421,-1.748 23.144,-6.782 32.33,-14.338 8.801,-7.239 19.188,-19.881 20.182,-39.507 7.742,-3.611 14.301,-8.112 19.512,-13.409 0.475,30.34 -12.524,73.662 -43.404,75.812 -16.515,1.154 -24.767,-4.327 -28.62,-8.558 m -16.217,-7.351 c -6.277,-1.232 -12.033,-4.584 -18.126,-8.131 -7.418,-4.317 -15.021,-8.74 -23.85,-9.401 7.564,-5.296 16.461,-7.363 19.637,-7.966 6.768,4.024 15.291,6.883 24.881,6.553 11.089,-0.377 27.261,-5.282 42.849,-25.85 0.881,1.024 1.718,2.036 2.493,3.022 l 1.48,1.892 2.324,-0.596 c 3.273,-0.838 6.405,-1.798 9.401,-2.872 -1.838,14.985 -10.123,24.848 -17.214,30.683 -12.498,10.28 -30.131,15.373 -43.875,12.666 M 134.035,406.927 c 2.653,-3.195 6.106,-5.509 10.122,-6.716 5.322,-1.595 11.002,-0.904 15.376,1.799 17.738,32.34 27.646,47.497 74.963,45.758 l -2.277,6.627 c -0.011,0.015 -0.021,0.03 -0.029,0.045 -0.519,0.904 -1.961,2.417 -4.189,3.848 -4.392,2.945 -11.647,5.645 -19.121,6.129 -1.864,0.086 -3.745,0.105 -5.575,-0.099 -1.833,-0.184 -3.626,-0.517 -5.306,-1.037 -1.701,-0.472 -3.255,-1.188 -4.688,-1.951 -0.726,-0.37 -1.357,-0.847 -2.018,-1.247 -0.624,-0.449 -1.191,-0.928 -1.761,-1.368 -1.058,-0.965 -1.993,-1.905 -2.72,-2.833 -0.788,-0.882 -1.285,-1.794 -1.798,-2.48 -0.837,-1.492 -1.314,-2.344 -1.314,-2.344 0,0 0.375,0.907 1.037,2.496 0.429,0.744 0.83,1.732 1.525,2.725 0.633,1.039 1.478,2.12 2.469,3.26 0.537,0.525 1.078,1.104 1.68,1.655 0.64,0.503 1.264,1.09 1.986,1.577 1.43,0.995 3.026,1.965 4.798,2.694 1.754,0.778 3.659,1.37 5.63,1.806 1.969,0.457 4.012,0.679 6.061,0.822 7.132,0.357 14.234,-1.038 19.763,-3.313 l -1.003,2.916 2.004,1.619 c 0.059,0.049 1.637,1.326 4.121,3.426 -12.605,8.223 -24.304,10.95 -34.794,8.095 -15.127,-4.118 -24.588,-18.675 -29.861,-30.164 -1.59,-3.464 -3.088,-7.256 -4.536,-10.924 -6.125,-15.505 -12.965,-32.819 -30.355,-32.821 z m 68.113,-251.032 c 17.12,2.748 22.29,13.549 22.35,13.677 l 0.765,-0.353 c -4.761,19.102 -14.172,43.391 -28.337,73.193 -13.671,28.759 -15.765,56.905 -6.231,83.657 10.851,30.45 34.845,52.321 54.425,63.374 -3.034,2.251 -5.659,5.064 -7.765,8.389 -0.428,-0.137 -0.874,-0.286 -1.338,-0.462 -1.273,-0.422 -2.848,-1.057 -4.665,-1.798 -1.795,-0.782 -3.807,-1.714 -5.967,-2.819 -2.15,-1.129 -4.459,-2.409 -6.837,-3.888 -2.379,-1.473 -4.848,-3.113 -7.321,-4.927 -2.483,-1.806 -4.987,-3.766 -7.44,-5.872 -2.48,-2.077 -4.869,-4.338 -7.224,-6.642 -4.659,-4.653 -8.982,-9.671 -12.557,-14.728 -1.803,-2.518 -3.419,-5.043 -4.818,-7.514 -1.441,-2.453 -2.581,-4.89 -3.598,-7.156 -0.952,-2.289 -1.738,-4.433 -2.281,-6.38 -0.564,-1.943 -0.913,-3.677 -1.14,-5.113 -0.22,-1.44 -0.336,-2.58 -0.351,-3.363 -0.046,-0.781 -0.069,-1.198 -0.069,-1.198 0,0 -0.005,0.417 -0.013,1.198 -0.038,0.788 -0.003,1.936 0.118,3.401 0.13,1.46 0.361,3.235 0.796,5.239 0.414,2.009 1.059,4.234 1.87,6.631 0.873,2.369 1.863,4.935 3.158,7.532 1.252,2.62 2.722,5.308 4.385,8.003 3.296,5.417 7.362,10.852 11.815,15.963 2.254,2.53 4.554,5.027 6.964,7.347 2.384,2.346 4.833,4.555 7.283,6.608 2.441,2.063 4.899,3.95 7.289,5.669 2.385,1.722 4.729,3.241 6.927,4.599 2.215,1.332 4.3,2.478 6.175,3.452 1.895,0.934 3.562,1.74 5.026,2.344 0.239,0.107 0.449,0.194 0.664,0.288 -0.817,2.254 -1.394,4.594 -1.731,6.987 -24.745,-4.536 -60.426,-30.938 -77.377,-66.335 -9.129,-19.057 -15.768,-47.507 4.438,-74.817 50.565,-68.343 56.077,-97.03 42.612,-114.186 m 31.041,-29.816 c -1.686,-4.087 -4.066,-7.521 -7.114,-10.282 15.377,0.738 24.864,13.051 24.977,13.202 l 0.346,-0.261 c 1.398,12.328 0.776,26.276 -2.79,41.322 -4.273,18.018 -8.783,33.922 -12.763,47.954 -17.713,62.468 -26.665,94.214 29.628,145.234 -1.155,4.419 -1.939,8.861 -2.461,12.685 -1.034,-0.537 -2.159,-1.17 -3.479,-1.866 -1.607,-0.909 -3.422,-2.066 -5.387,-3.291 -1.885,-1.361 -4.044,-2.692 -6.118,-4.39 -1.054,-0.827 -2.158,-1.653 -3.25,-2.543 -1.066,-0.923 -2.154,-1.865 -3.263,-2.824 -1.134,-0.935 -2.179,-1.998 -3.27,-3.043 -1.068,-1.069 -2.236,-2.072 -3.253,-3.232 -1.05,-1.134 -2.107,-2.277 -3.168,-3.424 -1.052,-1.157 -2.004,-2.407 -3.016,-3.611 l -1.497,-1.821 -1.385,-1.9 c -0.914,-1.275 -1.825,-2.543 -2.728,-3.803 -1.594,-2.648 -3.378,-5.155 -4.665,-7.82 -0.69,-1.311 -1.367,-2.601 -2.033,-3.863 -0.566,-1.308 -1.12,-2.589 -1.659,-3.834 -1.176,-2.465 -1.857,-4.95 -2.652,-7.196 -0.189,-0.565 -0.376,-1.119 -0.559,-1.659 -0.135,-0.554 -0.265,-1.093 -0.393,-1.621 -0.255,-1.055 -0.495,-2.057 -0.722,-3 -0.208,-0.945 -0.477,-1.821 -0.595,-2.653 -0.12,-0.83 -0.228,-1.593 -0.324,-2.283 -0.393,-2.769 -0.618,-4.35 -0.618,-4.35 0,0 0.11,1.595 0.303,4.387 0.049,0.699 0.103,1.473 0.16,2.318 0.059,0.845 0.267,1.739 0.408,2.704 0.161,0.967 0.33,1.995 0.509,3.079 0.09,0.543 0.184,1.099 0.281,1.669 0.144,0.559 0.293,1.129 0.443,1.713 0.636,2.323 1.152,4.91 2.163,7.495 0.459,1.312 0.932,2.657 1.413,4.035 0.583,1.334 1.181,2.7 1.788,4.09 1.129,2.827 2.755,5.511 4.207,8.364 0.835,1.36 1.678,2.73 2.523,4.108 l 1.285,2.061 1.407,1.989 c 0.951,1.315 1.849,2.678 2.846,3.953 1.013,1.265 2.022,2.525 3.022,3.777 0.971,1.282 2.099,2.402 3.128,3.592 1.055,1.167 2.068,2.352 3.173,3.407 1.084,1.086 2.151,2.15 3.192,3.191 1.072,1.012 2.164,1.961 3.206,2.907 2.048,1.933 4.212,3.503 6.11,5.083 1.997,1.461 3.803,2.8 5.506,3.935 1.737,1.088 3.282,2.11 4.519,2.823 0.453,0.249 0.857,0.472 1.236,0.681 -3.141,0.281 -6.126,0.955 -8.912,1.987 -18.989,-9.437 -44.303,-30.876 -55.271,-61.651 -8.856,-24.848 -6.856,-51.102 5.943,-78.034 28.826,-60.646 38.241,-98.615 29.623,-119.49 m 30.145,-30.252 c 13.889,13.97 21.771,36.96 21.623,63.076 h 0.002 c -0.97,9.13 -2.248,17.907 -3.738,26.051 -13.586,74.192 -14.196,107.633 10.2,140.177 -4.218,2.733 -9.094,5.361 -14.461,7.338 l -3.595,1.324 c -1.605,-1.893 -3.23,-3.985 -4.859,-6.257 -1.899,-2.612 -3.696,-5.511 -5.479,-8.556 -3.478,-6.139 -6.579,-13.071 -8.653,-20.349 -1.083,-3.624 -1.859,-7.336 -2.435,-11.026 -0.236,-1.847 -0.536,-3.682 -0.628,-5.51 -0.073,-0.915 -0.142,-1.824 -0.213,-2.726 -0.016,-0.905 -0.035,-1.803 -0.051,-2.695 -0.083,-3.567 0.135,-7.023 0.495,-10.283 0.378,-3.258 0.883,-6.339 1.559,-9.13 0.556,-2.827 1.432,-5.324 2.049,-7.586 0.801,-2.2 1.449,-4.144 2.074,-5.708 1.328,-3.105 2.085,-4.879 2.085,-4.879 0,0 -0.865,1.728 -2.374,4.753 -0.72,1.529 -1.484,3.437 -2.424,5.603 -0.757,2.236 -1.79,4.707 -2.521,7.53 -0.855,2.786 -1.55,5.878 -2.136,9.173 -0.566,3.302 -0.999,6.827 -1.135,10.494 -0.036,0.917 -0.072,1.842 -0.109,2.773 0.015,0.934 0.033,1.874 0.048,2.817 -0.013,1.897 0.18,3.802 0.31,5.733 0.366,3.847 0.946,7.75 1.846,11.583 1.706,7.699 4.507,15.135 7.772,21.789 1.676,3.304 3.386,6.467 5.225,9.337 1.816,2.884 3.649,5.544 5.483,7.906 1.798,2.368 3.57,4.45 5.232,6.245 l -1.347,1.572 c -2.114,2.466 -3.824,5.666 -5.219,9.173 -50.239,-46.616 -42.176,-75.118 -25.039,-135.548 3.999,-14.103 8.532,-30.091 12.842,-48.264 9.13,-38.512 -0.059,-70.708 -14.076,-88.425 7.946,1.89 15.304,6.115 21.647,12.495 m 24.182,-32.794 c 23.819,36.328 46.226,114.791 48.802,177.535 1.553,37.796 -4.038,65.15 -16.175,79.515 -3.212,-2.647 -6.23,-5.244 -8.414,-7.344 l -0.329,-0.318 c -0.139,-3.056 -0.381,-8.35 -0.686,-15.03 -0.222,-5.383 -0.489,-11.662 -0.699,-18.392 -0.251,-6.729 -0.46,-13.909 -0.606,-21.088 -0.074,-3.591 -0.206,-7.183 -0.225,-10.718 -0.034,-3.534 -0.067,-7.011 -0.096,-10.377 -0.029,-3.368 -0.09,-6.625 -0.009,-9.706 0.045,-3.086 0.088,-6.003 0.128,-8.694 0.039,-2.697 0.047,-5.166 0.231,-7.346 0.136,-2.183 0.254,-4.087 0.353,-5.654 0.194,-3.143 0.307,-4.937 0.307,-4.937 0,0 -0.227,1.782 -0.622,4.904 -0.199,1.559 -0.44,3.457 -0.713,5.634 -0.325,2.176 -0.492,4.643 -0.703,7.332 -0.211,2.692 -0.444,5.609 -0.685,8.692 -0.279,3.089 -0.427,6.344 -0.614,9.714 -0.184,3.367 -0.376,6.85 -0.569,10.39 -0.206,3.539 -0.303,7.134 -0.462,10.73 -0.309,7.194 -0.562,14.392 -0.743,21.136 -0.22,6.747 -0.355,13.044 -0.478,18.442 -0.173,9.449 -0.295,16.143 -0.322,17.67 -1.739,1.634 -4.01,3.632 -6.76,5.755 -23.065,-30.631 -22.368,-61.443 -8.973,-134.598 3.338,-18.223 11.979,-75.661 -0.938,-123.247 m 120.181,189.431 c 10.827,19.532 12.875,40.145 6.085,61.268 -11.162,34.721 -42.853,60.761 -62.184,70.323 -1.747,-0.391 -3.534,-0.702 -5.405,-0.84 -0.072,-1.117 -0.181,-2.476 -0.329,-3.982 0.455,-0.231 0.971,-0.492 1.547,-0.784 1.217,-0.633 2.765,-1.616 4.486,-2.632 1.705,-1.061 3.462,-2.357 5.436,-3.745 1.851,-1.529 3.976,-3.034 5.957,-4.927 1.006,-0.925 2.072,-1.839 3.099,-2.841 1.001,-1.022 2.024,-2.066 3.065,-3.128 1.067,-1.032 2.005,-2.221 3.021,-3.359 0.996,-1.157 2.04,-2.292 2.958,-3.549 0.947,-1.231 1.9,-2.469 2.858,-3.714 0.882,-1.298 1.766,-2.603 2.648,-3.907 0.915,-1.279 1.703,-2.642 2.493,-3.995 0.772,-1.36 1.631,-2.659 2.316,-4.047 1.39,-2.761 2.817,-5.437 3.884,-8.177 0.55,-1.36 1.181,-2.656 1.63,-3.995 0.456,-1.332 0.903,-2.637 1.337,-3.906 0.216,-0.635 0.428,-1.26 0.638,-1.875 0.166,-0.628 0.328,-1.249 0.49,-1.859 0.319,-1.218 0.627,-2.395 0.923,-3.522 0.618,-2.25 0.858,-4.389 1.241,-6.238 0.394,-1.847 0.51,-3.498 0.65,-4.845 0.273,-2.692 0.428,-4.231 0.428,-4.231 0,0 -0.269,1.524 -0.74,4.186 -0.238,1.328 -0.475,2.949 -1.002,4.756 -0.518,1.807 -0.909,3.891 -1.683,6.064 -0.374,1.089 -0.764,2.225 -1.168,3.397 -0.201,0.585 -0.406,1.181 -0.613,1.786 -0.251,0.59 -0.506,1.187 -0.765,1.794 -0.518,1.209 -1.049,2.452 -1.593,3.722 -0.531,1.27 -1.249,2.494 -1.88,3.777 -1.234,2.587 -2.821,5.089 -4.361,7.66 -0.76,1.29 -1.69,2.489 -2.534,3.745 -0.857,1.249 -1.712,2.504 -2.685,3.673 -0.943,1.19 -1.885,2.378 -2.824,3.561 -1.008,1.124 -2.009,2.243 -3.004,3.356 -0.963,1.133 -2.046,2.145 -3.077,3.177 -1.05,1.009 -2.018,2.076 -3.11,2.978 -1.059,0.932 -2.101,1.849 -3.121,2.746 -1.039,0.873 -2.111,1.657 -3.121,2.458 -1.988,1.645 -4.085,2.892 -5.904,4.19 -1.91,1.133 -3.664,2.241 -5.225,3.053 -1.4,0.684 -2.548,1.31 -3.641,1.814 -0.559,-3.499 -1.332,-7.267 -2.4,-10.926 55.219,-53.965 45.008,-89.573 26.587,-153.475 -3.217,-11.168 -6.867,-23.827 -10.404,-37.464 -3.604,-13.904 -4.429,-26.506 -3.366,-37.641 3.255,-2.738 16.128,-12.844 28.541,-12.626 -3.905,3.18 -6.859,7.401 -8.826,12.626 -8.728,23.177 3.172,66.959 32.647,120.12 m 38.319,17.656 c 20.82,27.355 14.211,56.43 4.999,76.006 -15.268,32.441 -48.788,60.874 -74.842,64.128 -0.431,-2.455 -1.108,-4.832 -2.024,-7.103 1.123,-0.455 2.316,-0.96 3.658,-1.552 1.915,-0.897 4.045,-1.956 6.314,-3.195 2.253,-1.262 4.655,-2.683 7.112,-4.305 2.459,-1.618 4.994,-3.401 7.519,-5.36 2.531,-1.948 5.071,-4.054 7.551,-6.299 2.503,-2.217 4.906,-4.618 7.263,-7.052 4.664,-4.919 8.952,-10.18 12.469,-15.453 1.775,-2.625 3.358,-5.252 4.717,-7.816 1.401,-2.54 2.498,-5.063 3.468,-7.393 0.909,-2.362 1.646,-4.559 2.142,-6.55 0.52,-1.984 0.826,-3.748 1.015,-5.2 0.183,-1.458 0.266,-2.606 0.262,-3.391 0.023,-0.784 0.037,-1.201 0.037,-1.201 0,0 -0.042,0.417 -0.12,1.196 -0.05,0.78 -0.212,1.916 -0.491,3.345 -0.287,1.425 -0.707,3.144 -1.352,5.06 -0.624,1.922 -1.498,4.031 -2.546,6.28 -1.11,2.221 -2.35,4.61 -3.892,6.999 -1.5,2.412 -3.219,4.868 -5.127,7.309 -3.782,4.903 -8.31,9.734 -13.158,14.192 -2.448,2.201 -4.929,4.362 -7.494,6.336 -2.541,2.001 -5.124,3.856 -7.678,5.557 -2.548,1.708 -5.084,3.242 -7.52,4.618 -2.439,1.376 -4.798,2.559 -6.992,3.599 -2.207,1.015 -4.255,1.859 -6.082,2.565 -1.699,0.615 -3.178,1.137 -4.411,1.505 -2.686,-3.953 -6.079,-7.145 -10.088,-9.44 23.653,-13.689 50.235,-40.965 60.058,-71.521 7.438,-23.134 5.198,-45.706 -6.655,-67.088 -17.063,-30.772 -28.183,-58.592 -32.507,-80.366 1.76,-2.797 7.724,-10.394 21.736,-12.635 -13.787,17.401 -8.76,46.666 42.659,114.225 m 48.064,79.443 c -6.982,-5.792 -18.575,-8.757 -31.323,-7.63 10.586,-28.057 7.282,-55.431 -9.426,-77.381 -65.823,-86.485 -47.714,-100.306 -36.893,-108.563 l 12.512,-9.55 -15.737,-0.35 c -15.471,-0.336 -25.45,4.382 -31.592,9.16 -0.573,-7.957 0.108,-14.561 2.032,-19.668 2.264,-6.014 6.189,-9.949 11.993,-12.031 l 12.215,-4.38 -11.629,-5.754 c -3.884,-1.927 -8.151,-2.899 -12.682,-2.899 -8.786,0 -17.268,3.638 -23.737,7.447 3.706,-13.359 10.708,-24.98 19.585,-32.335 l 11.784,-9.763 h -15.303 c -25.812,0 -44.731,16.285 -52.658,44.963 -12.543,-38.668 -27.788,-67.494 -42.207,-79.62 l -18.225,-15.33 9.632,21.781 c 7.321,16.559 11.596,38.602 12.505,64.211 C 280.98,103.057 275.86,95.387 269.853,89.345 259.224,78.658 246.122,73.006 231.96,73.006 h -15.302 l 11.784,9.765 c 7.751,6.422 14.155,17.233 17.936,30.123 -5.378,-3.332 -12.699,-6.365 -21.547,-6.365 -3.744,0 -7.571,0.545 -11.374,1.617 l -16.595,4.68 16.231,5.821 c 5.596,2.006 9.389,5.583 11.6,10.941 2.693,6.52 3.111,15.717 1.249,27.361 -6.198,-5.608 -16.617,-11.24 -33.633,-10.858 l -15.735,0.348 12.513,9.55 c 10.379,7.921 27.753,21.182 -36.94,108.624 -20.372,27.532 -16.551,55.842 -8.999,75.723 -2.13,-0.333 -4.291,-0.502 -6.456,-0.502 -6.467,0 -12.662,1.475 -17.918,4.267 -8.449,4.492 -13.517,11.754 -14.264,20.454 l -0.912,10.58 9.18,-5.34 c 4.122,-2.396 8.716,-2.931 13.622,-1.593 8.8,2.414 18.274,10.762 24.139,21.27 0.127,0.23 0.253,0.458 0.38,0.683 -3.179,-0.11 -6.319,0.325 -9.405,1.253 -8.813,2.647 -15.957,9.242 -19.602,18.095 l -4.206,10.212 10.69,-2.771 c 2.001,-0.518 3.874,-0.782 5.566,-0.782 10.621,0.003 15.632,10.677 22.068,26.964 1.034,2.619 2.128,5.364 3.293,8.091 -8.187,0.592 -17.687,3.086 -21.611,10.932 l -3.807,7.618 8.508,0.36 c 13.481,0.57 22.222,14.813 29.931,27.379 2.701,4.401 5.248,8.55 7.863,11.833 0.733,0.921 1.536,1.835 2.403,2.738 -7.604,2.666 -16.913,7.472 -23.128,15.968 l -9.656,13.206 15.681,-4.663 c 2.106,-0.626 4.155,-0.931 6.265,-0.931 7.505,0 14.351,3.985 21.598,8.204 6.485,3.776 13.188,7.676 20.981,9.208 2.639,0.518 5.455,0.805 8.382,0.855 3.413,5.26 12.736,15.382 33.847,15.382 1.625,0 3.316,-0.06 5.021,-0.178 2.819,-0.196 5.648,-0.687 8.424,-1.46 2.835,2.312 7.106,4.066 12.719,5.226 5.043,1.04 11.013,1.589 17.267,1.589 15.776,0 29.205,-3.342 36.27,-8.979 1.777,0.504 3.52,0.867 5.302,1.102 3.272,0.436 6.457,0.657 9.465,0.657 19.439,0 28.447,-9.088 31.848,-13.892 2.654,0.13 5.305,0.052 7.831,-0.234 11.04,-1.24 18.931,-5.445 25.892,-9.153 7.818,-4.164 14.437,-7.689 24.689,-7.175 l 10.517,0.536 -5.549,-8.95 c -3.923,-6.328 -9.344,-10.865 -16.145,-13.526 8.494,-6.697 14.01,-15.161 15.657,-24.13 1.812,-9.869 5.108,-16.475 9.527,-19.099 3.191,-1.892 5.903,-1.075 5.915,-1.071 l 12.5,4.114 -5.92,-11.844 c -3.928,-7.854 -13.52,-10.567 -21.756,-11.369 1.921,-4.794 3.593,-10.28 5.092,-15.201 3.267,-10.72 7.333,-24.059 12.84,-26.087 1.918,-0.71 4.464,-0.002 7.721,2.086 l 16.343,10.458 -8.395,-17.492 c -4.555,-9.487 -11.478,-14.1 -21.164,-14.1 -1.453,0 -2.964,0.099 -4.605,0.309 0.362,-0.648 0.728,-1.306 1.096,-1.971 6.163,-11.039 23.438,-23.626 32.433,-23.626 l 0.349,0.008 c 2.087,0.074 2.49,0.937 2.757,1.508 l 8.418,18.04 2.066,-19.802 c 0.644,-6.195 -1.749,-11.741 -6.925,-16.037 m -170.739,88.409 c -0.038,-0.389 0.033,-0.783 0.161,-1.178 l -0.023,0.014 c 0,0 -4.777,-22.138 -0.138,-43.894 1.88,2.144 1.267,32.676 9.541,38.401 l -0.375,0.219 c 3.304,-0.466 7.286,-0.218 11.61,1.25 7.78,2.637 13.493,11.462 20.786,13.141 -21.143,7.354 -40.84,-0.584 -41.562,-7.953 m -38.325,-0.504 c 0,0 4.636,-22.798 0,-44.554 -1.882,2.144 -1.27,32.676 -9.545,38.401 l 0.333,0.215 c -3.293,-0.459 -7.261,-0.208 -11.567,1.254 -7.781,2.637 -13.495,11.462 -20.786,13.141 21.144,7.354 40.84,-0.584 41.565,-7.953 0.015,-0.172 -0.01,-0.345 -0.024,-0.52 z"
           style="fill:white;fill-opacity:1;fill-rule:nonzero;stroke:none"
           id="path13177"
           inkscape:connector-curvature="0" /></g></g></g></svg>